# xmcd
#
# Track frame offsets:
#	150
#	21111
#	39400
#	55375
#	83404
#	106338
#	128408
#	148578
#	168191
#	185413
#	204715
#	221449
#
# Disc length: 3231 seconds
#
# Revision: 1
# Processed by: cddbd v1.5.2PL0 Copyright (c) Steve Scherf et al.
# Submitted via: EZCDAudioConverter 6.0.2.1
#
DISCID=9a0c9d0c
DTITLE=Deana Carter - The Chain
DYEAR=2007
DGENRE=Country
TTITLE0=Crying
TTITLE1=Help Me Make It Through The Night (with Kris Kristofferson)
TTITLE2=Love Is Like A Butterfly (with Dolly Parton)
TTITLE3=The Boxer (with Harper Simon)
TTITLE4=Lay Lady Lay
TTITLE5=The Weight
TTITLE6=I'm Not Lisa (with Jessi Colter)
TTITLE7=Swinging (with John Anderson)
TTITLE8=On The Road Again (with Willie Nelson)
TTITLE9=Good Hearted Woman (with Shooter Jennings)
TTITLE10=He Thinks I Still Care (with George Jones)
TTITLE11=Old Man
EXTD=
EXTT0=
EXTT1=
EXTT2=
EXTT3=
EXTT4=
EXTT5=
EXTT6=
EXTT7=
EXTT8=
EXTT9=
EXTT10=
EXTT11=
PLAYORDER=
